<svg width="51" height="52" viewBox="0 0 51 52" fill="none" xmlns="http://www.w3.org/2000/svg">
<path fill-rule="evenodd" clip-rule="evenodd" d="M39.4125 5.15262C39.5075 5.15012 39.645 5.16512 39.7125 5.18512C39.79 5.20762 39.875 5.25762 39.935 5.31762C39.99 5.37012 40.055 5.45762 40.0775 5.51262C40.1025 5.56762 40.1325 5.66262 40.1475 5.72512C40.1625 5.78762 40.185 5.93262 40.1975 6.05012C40.2175 6.21512 40.215 6.32012 40.185 6.51262C40.165 6.65012 40.11 6.88012 40.06 7.02512C40.0125 7.17012 39.905 7.41762 39.8225 7.57512C39.74 7.73262 39.5975 7.96762 39.505 8.09262C39.4125 8.22012 39.225 8.47762 39.0875 8.66512C38.92 8.89262 38.7875 9.04512 38.6875 9.12512C38.605 9.19012 38.4925 9.30512 38.435 9.37762C38.3775 9.45262 38.1475 9.78262 37.925 10.1126C37.7 10.4426 37.4175 10.8426 37.3 11.0001C37.18 11.1576 36.99 11.3901 36.875 11.5126C36.76 11.6376 36.5175 11.8951 36.3375 12.0876C36.155 12.2801 35.885 12.5776 35.7375 12.7501C35.5875 12.9226 35.145 13.3851 34.7525 13.7776C34.175 14.3551 33.9425 14.5676 33.55 14.8801C33.2825 15.0926 32.9275 15.3651 32.7625 15.4876C32.5975 15.6101 32.3325 15.8051 32.175 15.9226C32.0175 16.0401 31.74 16.2826 31.56 16.4626C31.345 16.6751 31.1575 16.8926 31.0175 17.0876C30.9 17.2526 30.775 17.4501 30.74 17.5251C30.705 17.6001 30.675 17.7076 30.675 17.7626C30.675 17.8176 30.695 17.9026 30.7225 17.9501C30.7525 18.0076 30.8125 18.0601 30.89 18.1001C30.9975 18.1551 31.0425 18.1626 31.275 18.1626C31.4425 18.1626 31.575 18.1501 31.6375 18.1251C31.6925 18.1051 31.7875 18.0501 31.85 18.0001C31.9125 17.9501 32.1025 17.7376 32.275 17.5251C32.4475 17.3126 32.655 17.0676 32.7375 16.9776C32.82 16.8901 33 16.7201 33.1375 16.6026C33.275 16.4851 33.4775 16.2976 33.5875 16.1876C33.7 16.0776 33.88 15.8751 33.9875 15.7376C34.0975 15.6001 34.2425 15.4151 34.3125 15.3301C34.38 15.2426 34.635 14.9951 34.875 14.7801C35.115 14.5651 35.5075 14.2076 35.7475 13.9876C35.9875 13.7676 36.2575 13.5226 36.3475 13.4401C36.4375 13.3601 36.8175 12.9876 37.1875 12.6151C37.5575 12.2401 37.975 11.8351 38.1125 11.7151C38.25 11.5926 38.4575 11.4276 38.575 11.3501C38.7025 11.2626 38.8975 11.0951 39.0625 10.9226C39.3175 10.6601 39.3525 10.6126 39.4975 10.3251C39.585 10.1526 39.6925 9.95762 39.7375 9.88762C39.78 9.82012 39.93 9.64012 40.0675 9.48762C40.205 9.33512 40.39 9.15012 40.4775 9.07262C40.565 8.99512 40.71 8.88012 40.8 8.81512C40.89 8.75012 41.03 8.66262 41.1125 8.62262C41.195 8.58262 41.345 8.53262 41.445 8.51262C41.5425 8.49262 41.6725 8.47512 41.73 8.47512C41.79 8.47512 41.8825 8.48762 41.9375 8.50262C41.9925 8.52012 42.0675 8.55512 42.1075 8.58512C42.145 8.61262 42.2025 8.68762 42.235 8.75012C42.2675 8.81262 42.3075 8.92512 42.32 9.00012C42.335 9.07512 42.355 9.21012 42.3625 9.30012C42.3725 9.39012 42.365 9.57512 42.35 9.71262C42.3325 9.85012 42.2925 10.0701 42.26 10.2001C42.225 10.3301 42.1425 10.5501 42.075 10.6876C42.0075 10.8251 41.8875 11.0401 41.8075 11.1626C41.685 11.3476 41.6375 11.4601 41.5275 11.8001C41.4525 12.0276 41.3375 12.3201 41.2725 12.4501C41.205 12.5801 41.095 12.7601 41.0275 12.8501C40.96 12.9401 40.835 13.0851 40.7475 13.1751C40.66 13.2651 40.425 13.4901 40.225 13.6751C39.915 13.9651 39.8275 14.0301 39.625 14.1326C39.495 14.2001 39.305 14.3201 39.205 14.4026C39.1075 14.4826 38.9175 14.6701 38.7875 14.8201C38.6575 14.9676 38.48 15.1801 38.395 15.2901C38.3075 15.4026 38.0775 15.7001 37.8825 15.9526C37.685 16.2051 37.42 16.5376 37.29 16.6876C37.16 16.8376 36.7025 17.3126 36.2725 17.7401C35.625 18.3776 35.41 18.5751 35.05 18.8501C34.81 19.0351 34.5375 19.2526 34.4425 19.3301C34.3475 19.4126 34.2425 19.5301 34.2 19.6076C34.15 19.6951 34.125 19.7726 34.125 19.8451C34.125 19.9026 34.1425 19.9851 34.1625 20.0251C34.1825 20.0651 34.2325 20.1176 34.275 20.1376C34.3175 20.1601 34.4175 20.1751 34.505 20.1751C34.625 20.1751 34.7125 20.1551 34.8625 20.0926C34.9725 20.0476 35.1575 19.9601 35.275 19.8951C35.3925 19.8326 35.5775 19.7151 35.6875 19.6376C35.7975 19.5576 35.9725 19.4226 36.075 19.3351C36.1775 19.2476 36.36 19.0676 36.48 18.9326C36.5975 18.7976 36.8575 18.4851 37.055 18.2376C37.3075 17.9226 37.48 17.7301 37.635 17.6001C37.7575 17.4976 37.93 17.3526 38.0225 17.2801C38.1125 17.2101 38.3225 17.0326 38.4875 16.8876C38.66 16.7376 38.8775 16.5751 38.9975 16.5076C39.115 16.4401 39.2725 16.3301 39.3475 16.2626C39.425 16.1926 39.5325 16.1026 39.5875 16.0626C39.6425 16.0226 39.775 15.9101 39.8825 15.8126C39.99 15.7176 40.2775 15.4401 40.5225 15.2001C40.7675 14.9601 41.0075 14.7001 41.055 14.6251C41.1025 14.5501 41.2325 14.4026 41.3425 14.3001C41.45 14.1976 41.6175 14.0451 41.7125 13.9626C41.8075 13.8801 41.98 13.6826 42.0975 13.5251C42.2125 13.3676 42.4175 13.1151 42.5475 12.9651C42.68 12.8151 42.8825 12.5851 43 12.4526C43.1175 12.3226 43.3475 12.0926 43.5125 11.9426C43.7325 11.7426 43.8625 11.6476 44 11.5801C44.16 11.5026 44.2175 11.4876 44.4 11.4776C44.5375 11.4726 44.6475 11.4801 44.7125 11.5026C44.7675 11.5201 44.845 11.5651 44.885 11.6001C44.925 11.6351 44.98 11.7076 45.0075 11.7626C45.0375 11.8226 45.0675 11.9601 45.0825 12.1126C45.1025 12.2951 45.1 12.4401 45.08 12.6451C45.0625 12.7976 45.0225 13.0126 44.9875 13.1201C44.955 13.2251 44.8775 13.4251 44.82 13.5626C44.76 13.7001 44.6275 13.9601 44.5275 14.1376C44.4275 14.3151 44.23 14.6476 44.0925 14.8751C43.955 15.1026 43.79 15.3651 43.725 15.4626C43.66 15.5601 43.5125 15.7551 43.3975 15.9001C43.2825 16.0451 42.985 16.3651 42.735 16.6126C42.4875 16.8601 42.2225 17.1476 42.145 17.2501C42.07 17.3526 41.935 17.5501 41.85 17.6876C41.765 17.8251 41.6375 17.9976 41.565 18.0726C41.495 18.1451 41.32 18.2851 41.175 18.3801C41.03 18.4751 40.7675 18.6251 40.5875 18.7126C40.3825 18.8151 40.1725 18.9451 40.0175 19.0626C39.845 19.1951 39.66 19.3776 39.38 19.6926C39.165 19.9351 38.8975 20.2351 38.79 20.3601C38.6825 20.4851 38.535 20.6501 38.4675 20.7251C38.3975 20.8001 38.2625 20.9351 38.165 21.0226C38.0675 21.1101 37.8975 21.2476 37.7875 21.3301C37.6775 21.4126 37.515 21.5201 37.425 21.5676C37.335 21.6176 37.1275 21.7351 36.9625 21.8326C36.7975 21.9301 36.5675 22.0826 36.45 22.1726C36.3325 22.2626 36.1575 22.4101 36.06 22.5001C35.9625 22.5901 35.665 22.8601 35.4 23.1001C35.1325 23.3401 34.7475 23.6976 34.545 23.8951C34.3425 24.0901 34.1 24.3001 34.005 24.3626C33.8875 24.4401 33.785 24.4876 33.6625 24.5151C33.5525 24.5401 33.3025 24.5576 32.9875 24.5676C32.67 24.5751 32.42 24.5701 32.3 24.5526C32.1875 24.5351 32.0425 24.4901 31.9375 24.4401C31.8275 24.3876 31.7275 24.3151 31.6675 24.2476C31.615 24.1876 31.51 24.0126 31.435 23.8626C31.35 23.6951 31.2925 23.5401 31.2825 23.4626C31.2725 23.3793 31.2792 23.3093 31.3025 23.2526C31.3225 23.2076 31.3675 23.1526 31.405 23.1351C31.445 23.1151 31.5225 23.0926 31.58 23.0851C31.64 23.0751 31.73 23.0751 31.78 23.0851C31.8575 23.0976 31.9275 23.1501 32.1525 23.3701C32.3025 23.5176 32.475 23.6651 32.5325 23.7001C32.6125 23.7476 32.6725 23.7626 32.7875 23.7626C32.87 23.7626 33 23.7426 33.075 23.7201C33.15 23.6976 33.2975 23.6226 33.4 23.5526C33.5025 23.4851 33.6825 23.3501 33.8 23.2576C33.9225 23.1576 34.095 22.9826 34.2125 22.8376C34.3225 22.7001 34.5075 22.4926 34.625 22.3726C34.7875 22.2101 34.8775 22.1401 35.0125 22.0776C35.1075 22.0301 35.255 21.9601 35.3375 21.9201C35.42 21.8801 35.6175 21.7526 35.775 21.6376C35.9325 21.5226 36.225 21.3351 36.425 21.2226C36.625 21.1101 36.895 20.9476 37.025 20.8626C37.2375 20.7251 37.3 20.6651 37.5975 20.3101C37.7825 20.0926 38.065 19.7826 38.2225 19.6226C38.3825 19.4626 38.58 19.2876 38.6625 19.2326C38.745 19.1776 38.8875 19.0651 38.9775 18.9851C39.07 18.9026 39.265 18.7301 39.415 18.6001C39.565 18.4701 39.9675 18.0926 40.3075 17.7626C40.7525 17.3351 40.9625 17.1126 41.045 16.9876C41.1075 16.8901 41.215 16.7451 41.285 16.6626C41.355 16.5801 41.48 16.4401 41.5625 16.3501C41.645 16.2601 41.8075 16.0701 41.925 15.9301C42.0425 15.7876 42.205 15.5901 42.285 15.4926C42.365 15.3926 42.495 15.2176 42.5725 15.1001C42.6475 14.9826 42.7575 14.7826 42.8175 14.6576C42.8775 14.5301 42.9525 14.3276 42.9875 14.2076C43.0275 14.0726 43.05 13.9251 43.05 13.8251C43.05 13.7201 43.035 13.6326 43.0075 13.5776C42.9825 13.5326 42.9225 13.4726 42.875 13.4476C42.8275 13.4201 42.7425 13.4001 42.6875 13.4001C42.6325 13.4001 42.545 13.4126 42.4925 13.4251C42.4425 13.4401 42.365 13.4801 42.32 13.5201C42.2775 13.5576 42.2 13.6451 42.15 13.7126C42.1 13.7826 41.9675 13.9901 41.855 14.1751C41.745 14.3601 41.5975 14.5901 41.53 14.6876C41.4625 14.7851 41.2625 15.0201 41.0825 15.2126C40.905 15.4051 40.71 15.6026 40.6475 15.6526C40.5875 15.7026 40.475 15.7826 40.4 15.8301C40.325 15.8776 40.1725 15.9926 40.0625 16.0851C39.9525 16.1751 39.7575 16.3426 39.6275 16.4576C39.5 16.5701 39.285 16.7626 39.155 16.8876C39.025 17.0126 38.605 17.4276 38.225 17.8126C37.8475 18.1976 37.48 18.5901 37.41 18.6876C37.34 18.7851 37.23 18.9526 37.165 19.0626C37.1 19.1726 36.99 19.3401 36.9175 19.4376C36.845 19.5326 36.6975 19.7051 36.5875 19.8201C36.4775 19.9376 36.3025 20.1026 36.2 20.1876C36.0975 20.2726 35.9275 20.3976 35.825 20.4626C35.7225 20.5301 35.5575 20.6176 35.4625 20.6551C35.3675 20.6951 35.1875 20.7551 35.0625 20.7901C34.9275 20.8276 34.6975 20.8626 34.4875 20.8801C34.23 20.9001 34.085 20.9026 33.9375 20.8801C33.8275 20.8651 33.6525 20.8251 33.55 20.7901C33.43 20.7476 33.3325 20.6951 33.28 20.6426C33.2375 20.6001 33.17 20.4951 33.1325 20.4126C33.075 20.2876 33.065 20.2276 33.065 20.0501C33.065 19.8526 33.0725 19.8226 33.1675 19.6251C33.24 19.4726 33.32 19.3576 33.4525 19.2151C33.555 19.1076 33.7625 18.9251 33.9125 18.8101C34.0625 18.6976 34.3325 18.5126 34.5125 18.4001C34.6925 18.2876 34.9325 18.1251 35.05 18.0401C35.1675 17.9576 35.365 17.7876 35.49 17.6626C35.6225 17.5301 35.7825 17.3351 35.88 17.1876C35.9725 17.0501 36.12 16.8026 36.21 16.6376C36.3025 16.4726 36.445 16.2026 36.5275 16.0376C36.6125 15.8726 36.72 15.6826 36.77 15.6126C36.8175 15.5451 36.8975 15.4451 36.9475 15.3901C36.9975 15.3376 37.145 15.2101 37.275 15.1051C37.405 15.0001 37.565 14.8701 37.6275 14.8151C37.69 14.7576 37.8025 14.6626 37.875 14.6001C37.9475 14.5376 38.0625 14.4101 38.1275 14.3126C38.1925 14.2151 38.3375 14.0376 38.4475 13.9126C38.5575 13.7876 38.7875 13.5251 38.955 13.3251C39.125 13.1276 39.3425 12.8851 39.4375 12.7876C39.5325 12.6901 39.6625 12.5526 39.725 12.4851C39.7875 12.4176 39.9775 12.2326 40.1475 12.0751C40.3575 11.8776 40.5 11.7176 40.6025 11.5701C40.6925 11.4351 40.765 11.2951 40.79 11.2076C40.815 11.1076 40.8225 11.0426 40.805 11.0001C40.7925 10.9651 40.745 10.9151 40.6975 10.8901C40.6225 10.8451 40.5975 10.8451 40.4625 10.8701C40.38 10.8851 40.24 10.9351 40.15 10.9776C40.03 11.0376 39.9225 11.1226 39.7375 11.3101C39.6 11.4501 39.4275 11.6351 39.3525 11.7251C39.28 11.8151 39.065 12.0501 38.8775 12.2476C38.69 12.4451 38.4575 12.6676 38.3625 12.7401C38.2675 12.8126 38.08 12.9701 37.95 13.0901C37.82 13.2101 37.585 13.4026 37.43 13.5151C37.2775 13.6301 37.0975 13.7726 37.035 13.8326C36.97 13.8901 36.83 14.0501 36.7225 14.1876C36.6175 14.3251 36.415 14.5776 36.275 14.7501C36.1375 14.9226 35.8625 15.2151 35.6675 15.4001C35.4725 15.5851 35.2175 15.8401 35.1 15.9626C34.985 16.0876 34.445 16.6376 33.9 17.1876C33.3575 17.7376 32.81 18.3001 32.685 18.4376C32.5475 18.5876 32.37 18.7501 32.235 18.8451C32.1125 18.9326 31.945 19.0426 31.8625 19.0876C31.78 19.1351 31.64 19.1926 31.55 19.2151C31.4075 19.2526 31.3425 19.2526 31.02 19.2276C30.6925 19.2026 30.6325 19.1926 30.5075 19.1276C30.4275 19.0876 30.2725 18.9801 30.1625 18.8926C30.0525 18.8051 29.9275 18.6826 29.885 18.6226C29.8425 18.5626 29.7825 18.4651 29.7525 18.4076C29.725 18.3476 29.6875 18.2276 29.675 18.1376C29.6583 18.0293 29.6583 17.9376 29.675 17.8626C29.6875 17.8001 29.77 17.6301 29.855 17.4826C29.94 17.3326 30.09 17.0876 30.1875 16.9376C30.3225 16.7301 30.4525 16.5776 30.715 16.3151C30.905 16.1226 31.13 15.9101 31.2125 15.8426C31.295 15.7751 31.52 15.5701 31.7125 15.3876C31.905 15.2076 32.13 15.0101 32.2125 14.9526C32.295 14.8951 32.47 14.8026 32.6 14.7451C32.73 14.6901 32.9325 14.5951 33.05 14.5351C33.1675 14.4751 33.38 14.3326 33.525 14.2176C33.67 14.1026 33.8875 13.8976 34.01 13.7601C34.135 13.6251 34.4 13.3501 34.6025 13.1501C34.805 12.9501 35.03 12.7151 35.1025 12.6251C35.1775 12.5326 35.29 12.3426 35.3675 12.1826C35.44 12.0276 35.6025 11.7451 35.73 11.5576C35.855 11.3676 36.0325 11.1176 36.1225 11.0001C36.2125 10.8826 36.375 10.6351 36.4825 10.4501C36.59 10.2651 36.7475 10.0326 36.8325 9.93262C36.9175 9.83262 37.0825 9.67012 37.2 9.56762C37.3175 9.46762 37.4675 9.32262 37.5325 9.24762C37.6 9.17262 37.7175 9.01762 37.795 8.90012C37.875 8.77762 37.965 8.60262 38.005 8.48762C38.05 8.36012 38.075 8.23512 38.075 8.14512C38.075 8.06512 38.06 7.96262 38.0425 7.92012C38.0225 7.87512 37.975 7.81262 37.935 7.78012C37.8825 7.73762 37.83 7.72262 37.745 7.72512C37.6775 7.72512 37.5825 7.74512 37.5325 7.77262C37.48 7.80012 37.3975 7.86512 37.3475 7.91762C37.2975 7.97012 37.145 8.16512 37.005 8.35012C36.8675 8.53512 36.635 8.82762 36.4875 9.00012C36.34 9.17262 36.0325 9.56012 35.805 9.86262C35.5775 10.1651 35.3425 10.4751 35.28 10.5501C35.22 10.6251 35.0625 10.7976 34.93 10.9326C34.795 11.0701 34.53 11.3001 34.3375 11.4451C34.0625 11.6526 33.8225 11.8751 33.225 12.4751C32.805 12.8951 32.36 13.3551 32.2375 13.5001C32.115 13.6451 31.7775 14.0051 31.4875 14.3001C31.1 14.6926 30.92 14.8976 30.8125 15.0626C30.7325 15.1876 30.5975 15.3776 30.515 15.4876C30.4325 15.5976 30.19 15.8676 29.9775 16.0876C29.7325 16.3401 29.555 16.5451 29.5025 16.6376C29.455 16.7201 29.37 16.8601 29.3125 16.9501C29.2275 17.0826 29.13 17.1751 28.785 17.4551C28.5525 17.6426 28.265 17.8926 28.145 18.0101C28.005 18.1451 27.905 18.2701 27.87 18.3451C27.8275 18.4426 27.8175 18.5076 27.82 18.7126C27.82 18.9001 27.8375 19.0251 27.8875 19.2126C27.925 19.3501 27.99 19.5401 28.035 19.6376C28.08 19.7351 28.1675 19.8676 28.2275 19.9351C28.2875 20.0026 28.45 20.1326 28.585 20.2226C28.7225 20.3126 28.8725 20.4326 28.92 20.4876C28.9675 20.5426 29.0275 20.6326 29.0525 20.6876C29.0775 20.7426 29.1 20.8326 29.1 20.8876C29.1 20.9626 29.075 21.0301 29 21.1501C28.945 21.2401 28.875 21.3626 28.8475 21.4251C28.82 21.4876 28.78 21.6051 28.76 21.6876C28.7375 21.7701 28.7 21.9101 28.6725 22.0001C28.6475 22.0901 28.6 22.2026 28.57 22.2501C28.5375 22.2976 28.445 22.3826 28.3625 22.4401C28.2775 22.4951 28.1525 22.5551 28.075 22.5726C28 22.5901 27.865 22.6401 27.7775 22.6851C27.67 22.7376 27.5725 22.8126 27.48 22.9126C27.4025 22.9951 27.2675 23.1526 27.175 23.2626C27.0825 23.3726 26.9625 23.5301 26.905 23.6126C26.85 23.6951 26.78 23.8126 26.7525 23.8751C26.725 23.9376 26.7 24.0326 26.7 24.0876C26.7 24.1451 26.7175 24.2151 26.7425 24.2476C26.7675 24.2826 26.825 24.3251 26.87 24.3426C26.9175 24.3626 27.05 24.3751 27.195 24.3751C27.3275 24.3751 27.4775 24.3626 27.525 24.3501C27.5725 24.3351 27.655 24.2926 27.71 24.2551C27.7625 24.2176 27.9025 24.0701 28.02 23.9251C28.1375 23.7801 28.3975 23.5051 28.5975 23.3126C28.795 23.1201 29.1675 22.7576 29.4225 22.5076C29.74 22.1976 29.9225 22.0376 30 22.0026C30.0625 21.9751 30.145 21.9501 30.1875 21.9501C30.23 21.9501 30.3125 21.9676 30.375 21.9901C30.4375 22.0101 30.5375 22.0651 30.6 22.1076C30.6775 22.1651 30.7275 22.2276 30.77 22.3251C30.8175 22.4326 30.8275 22.4851 30.815 22.5626C30.805 22.6176 30.7425 22.7526 30.6775 22.8626C30.6125 22.9726 30.4975 23.1701 30.425 23.3001C30.3525 23.4301 30.2475 23.6101 30.195 23.7001C30.1425 23.7901 30.0625 23.9001 30.0175 23.9476C29.9725 23.9951 29.8525 24.0976 29.75 24.1751C29.6475 24.2526 29.45 24.4226 29.3125 24.5501C29.175 24.6776 29.005 24.8276 28.9375 24.8826C28.8675 24.9376 28.7275 25.0201 28.625 25.0676C28.5225 25.1151 28.4125 25.1776 28.38 25.2076C28.345 25.2426 28.325 25.2901 28.325 25.3451C28.325 25.3876 28.3325 25.4451 28.345 25.4676C28.355 25.4901 28.43 25.5401 28.5125 25.5801C28.595 25.6176 28.675 25.6501 28.6875 25.6501C28.7 25.6501 28.83 25.7226 28.975 25.8101C29.12 25.8976 29.2975 26.0126 29.37 26.0676C29.445 26.1201 29.575 26.2376 29.6575 26.3276C29.7425 26.4176 29.8625 26.5476 29.925 26.6151C29.9875 26.6826 30.1275 26.8126 30.2375 26.9076C30.3475 27.0001 30.5225 27.1276 30.625 27.1901C30.7275 27.2526 30.875 27.3576 30.95 27.4226C31.025 27.4876 31.29 27.6726 31.5375 27.8376C31.785 28.0001 32.06 28.1926 32.15 28.2626C32.24 28.3326 32.36 28.4201 32.42 28.4576C32.4775 28.4951 32.6025 28.6076 32.6975 28.7076C32.7925 28.8051 33.01 29.0326 33.18 29.2076C33.35 29.3826 33.56 29.5851 33.65 29.6551C33.74 29.7276 34.1325 30.0976 34.525 30.4776C34.9175 30.8601 35.39 31.2976 35.575 31.4526C35.76 31.6051 35.98 31.7951 36.0625 31.8726C36.145 31.9501 36.41 32.1751 36.65 32.3751C36.8875 32.5751 37.21 32.8451 37.36 32.9776C37.5125 33.1101 37.8 33.3376 38 33.4876C38.2 33.6351 38.435 33.8151 38.525 33.8876C38.615 33.9576 38.76 34.0676 38.85 34.1326C38.94 34.1951 39.1375 34.3501 39.2875 34.4726C39.475 34.6301 39.655 34.7501 39.86 34.8576C40.085 34.9751 40.21 35.0626 40.385 35.2201C40.52 35.3426 40.6725 35.4551 40.7625 35.4976C40.845 35.5351 40.9575 35.5876 41.0125 35.6101C41.0675 35.6326 41.18 35.7076 41.2625 35.7776C41.345 35.8451 41.485 35.9376 41.575 35.9801C41.665 36.0226 41.8 36.0976 41.875 36.1451C41.95 36.1926 42.125 36.2876 42.2625 36.3551C42.4 36.4226 42.5975 36.5376 42.7 36.6101C42.8025 36.6826 42.95 36.7651 43.025 36.7951C43.105 36.8251 43.235 36.9126 43.3375 37.0001C43.45 37.0976 43.57 37.1751 43.675 37.2151C43.785 37.2601 43.8825 37.3226 43.975 37.4101C44.05 37.4826 44.185 37.5801 44.275 37.6251C44.365 37.6701 44.5275 37.7776 44.6375 37.8626C44.765 37.9601 44.895 38.0951 44.9975 38.2276C45.0825 38.3426 45.1825 38.4951 45.2125 38.5626C45.245 38.6326 45.325 38.7501 45.3925 38.8251C45.46 38.9001 45.54 39.0301 45.5725 39.1126C45.6075 39.1951 45.66 39.3051 45.6925 39.3576C45.725 39.4076 45.7625 39.4551 45.775 39.4626C45.7875 39.4701 45.8275 39.5226 45.8625 39.5826C45.895 39.6401 45.935 39.7551 45.95 39.8376C45.965 39.9201 45.995 40.0451 46.0175 40.1126C46.0375 40.1826 46.105 40.3226 46.1625 40.4251C46.2225 40.5276 46.295 40.6976 46.325 40.8001C46.3525 40.9026 46.3925 41.1676 46.4125 41.3876C46.4325 41.6076 46.465 41.9126 46.485 42.0626C46.505 42.2126 46.535 42.6126 46.55 42.9501C46.5675 43.2876 46.5725 43.6626 46.5625 43.7876C46.5525 43.9126 46.5225 44.0976 46.4975 44.2001C46.47 44.3026 46.39 44.5126 46.315 44.6626C46.195 44.9126 46.1625 44.9576 45.96 45.1476C45.805 45.2926 45.6825 45.3826 45.5625 45.4401C45.465 45.4876 45.3475 45.5251 45.3 45.5251C45.2375 45.5251 45.165 45.4926 45.04 45.4051C44.8875 45.3026 44.85 45.2876 44.715 45.2801C44.6325 45.2751 44.4775 45.2901 44.375 45.3101C44.23 45.3426 44.14 45.3826 43.975 45.4901C43.8575 45.5651 43.7175 45.6401 43.6625 45.6526C43.59 45.6726 43.4725 45.6726 43.25 45.6526C43.0775 45.6351 42.7975 45.5951 42.625 45.5601C42.4525 45.5251 42.2225 45.4801 42.1125 45.4626C42.0025 45.4426 41.8175 45.3976 41.7 45.3626C41.5825 45.3276 41.3975 45.2876 41.2875 45.2776C41.125 45.2601 41.045 45.2351 40.85 45.1376C40.72 45.0726 40.5625 44.9851 40.5 44.9426C40.4375 44.9001 40.2925 44.7926 40.175 44.7026C40.0575 44.6151 39.86 44.4451 39.735 44.3276C39.6075 44.2101 39.4375 44.0276 39.3575 43.9251C39.275 43.8226 39.1225 43.6576 39.0225 43.5601C38.92 43.4626 38.68 43.2326 38.485 43.0476C38.29 42.8626 38.06 42.6451 37.9725 42.5626C37.885 42.4801 37.7225 42.2951 37.6125 42.1501C37.5025 42.0076 37.26 41.7376 37.075 41.5501C36.89 41.3651 36.665 41.1276 36.5775 41.0251C36.49 40.9226 36.3925 40.7976 36.3625 40.7501C36.3325 40.7026 36.245 40.5551 36.17 40.4251C36.0925 40.2951 36 40.1151 35.965 40.0251C35.9225 39.9176 35.8525 39.8076 35.755 39.7001C35.675 39.6101 35.5725 39.4876 35.525 39.4251C35.4775 39.3651 35.2775 39.1351 35.08 38.9126C34.8825 38.6926 34.655 38.4176 34.575 38.3001C34.495 38.1826 34.325 37.9701 34.195 37.8251C34.0675 37.6801 33.89 37.4726 33.8 37.3651C33.71 37.2576 33.58 37.1001 33.5125 37.0126C33.4425 36.9276 33.2775 36.7401 33.14 36.5976C33.005 36.4551 32.86 36.2876 32.8175 36.2251C32.7775 36.1626 32.6125 35.9776 32.45 35.8126C32.29 35.6476 32.12 35.4626 32.07 35.4001C32.02 35.3376 31.9025 35.1701 31.8075 35.0251C31.7125 34.8801 31.5925 34.6826 31.5425 34.5876C31.49 34.4926 31.39 34.3426 31.3175 34.2576C31.2475 34.1751 31.1425 34.0676 31.0875 34.0251C31.0325 33.9801 30.925 33.9151 30.85 33.8751C30.775 33.8376 30.65 33.7876 30.575 33.7626C30.5 33.7376 30.37 33.6851 30.2875 33.6426C30.205 33.6026 30.075 33.5051 29.9975 33.4276C29.895 33.3251 29.825 33.2201 29.73 33.0251C29.63 32.8226 29.575 32.6601 29.49 32.3126C29.3825 31.8801 29.3675 31.8426 29.1225 31.3626C28.9825 31.0876 28.8 30.7451 28.7175 30.6001C28.635 30.4551 28.5025 30.2426 28.4225 30.1251C28.345 30.0076 28.2025 29.8401 28.1075 29.7501C28.015 29.6601 27.8575 29.5451 27.7625 29.4951C27.665 29.4451 27.515 29.3851 27.425 29.3651C27.335 29.3426 27.15 29.3251 27.0125 29.3251C26.7875 29.3251 26.7475 29.3326 26.625 29.3926C26.525 29.4451 26.445 29.5151 26.325 29.6576C26.1975 29.8101 26.13 29.8701 26.0125 29.9276C25.93 29.9676 25.755 30.0201 25.625 30.0476C25.495 30.0751 25.2175 30.1201 25.0125 30.1476C24.805 30.1776 24.575 30.2201 24.5 30.2401C24.425 30.2626 24.3125 30.3076 24.25 30.3451C24.1875 30.3801 24.1 30.4451 24.0525 30.4876C24.005 30.5276 23.8175 30.7476 23.6375 30.9751C23.4575 31.2026 23.26 31.4551 23.1975 31.5376C23.135 31.6201 23.0175 31.7951 22.935 31.9251C22.8325 32.0951 22.71 32.2426 22.5125 32.4401C22.3625 32.5901 22.1675 32.7676 22.08 32.8326C21.985 32.9051 21.855 33.0426 21.7425 33.1901C21.645 33.3226 21.525 33.4826 21.48 33.5451C21.435 33.6101 21.3525 33.7526 21.295 33.8626C21.2375 33.9726 21.095 34.2201 20.975 34.4126C20.855 34.6051 20.7225 34.8301 20.675 34.9126C20.63 34.9951 20.48 35.2326 20.3425 35.4376C20.205 35.6451 19.9175 36.0501 19.705 36.3376C19.4925 36.6251 19.2425 36.9626 19.15 37.0876C19.0575 37.2126 18.88 37.4526 18.755 37.6251C18.63 37.7976 18.4075 38.0901 18.2625 38.2751C18.115 38.4601 17.865 38.7576 17.705 38.9376C17.545 39.1151 17.325 39.3576 17.215 39.4751C17.1075 39.5926 16.9325 39.7876 16.83 39.9126C16.725 40.0376 16.5325 40.2626 16.4 40.4126C16.2675 40.5626 16.0325 40.8451 15.875 41.0376C15.72 41.2301 15.535 41.4501 15.4675 41.5251C15.3975 41.6001 15.2075 41.8326 15.0425 42.0376C14.875 42.2451 14.66 42.5376 14.5625 42.6876C14.4625 42.8376 14.33 43.0526 14.2625 43.1626C14.1975 43.2726 14.045 43.5476 13.9275 43.7751C13.81 44.0026 13.645 44.2776 13.5625 44.3876C13.48 44.4976 13.35 44.6526 13.275 44.7351C13.2 44.8176 12.985 44.9976 12.8 45.1351C12.615 45.2726 12.345 45.4751 12.2 45.5901C12.055 45.7026 11.875 45.8326 11.8 45.8801C11.725 45.9276 11.4475 46.0751 11.1875 46.2076C10.76 46.4251 10.6725 46.4601 10.3125 46.5526C10.0925 46.6101 9.81751 46.6826 9.70001 46.7126C9.58251 46.7451 9.33001 46.7851 9.13751 46.8051C8.90251 46.8276 8.41251 46.8376 7.63751 46.8376C6.65251 46.8376 6.45251 46.8301 6.24251 46.7926C6.11001 46.7701 5.95751 46.7276 5.90501 46.7026C5.85501 46.6776 5.76251 46.6101 5.70001 46.5576C5.63751 46.5026 5.48751 46.3051 5.36251 46.1151C5.24001 45.9251 5.03251 45.6226 4.90501 45.4401C4.77751 45.2601 4.63251 45.0326 4.58501 44.9376C4.51251 44.7926 4.49251 44.7176 4.47001 44.5001C4.45251 44.3151 4.45001 44.0151 4.47001 43.4751C4.49251 42.8126 4.50251 42.6801 4.55501 42.4751C4.60501 42.2751 4.63751 42.2026 4.77001 42.0076C4.85501 41.8801 4.94251 41.7151 4.96251 41.6451C4.98251 41.5726 5.00001 41.4876 5.00001 41.4576C5.00001 41.4251 5.01501 41.3726 5.03001 41.3376C5.04751 41.3026 5.11751 41.2451 5.18751 41.2076C5.25501 41.1726 5.35001 41.1176 5.39251 41.0851C5.45251 41.0401 5.49251 40.9776 5.54251 40.8451C5.59001 40.7151 5.64501 40.6226 5.73501 40.5251C5.80501 40.4501 5.93001 40.3076 6.01501 40.2126C6.09751 40.1176 6.20751 39.9826 6.26251 39.9126C6.31501 39.8451 6.53001 39.6201 6.73751 39.4176C6.94251 39.2151 7.16251 39.0051 7.22501 38.9551C7.28751 38.9051 7.47751 38.7201 7.65001 38.5476C7.82251 38.3726 8.04751 38.1301 8.15001 38.0101C8.25251 37.8901 8.43251 37.6951 8.55001 37.5776C8.66751 37.4601 8.89001 37.2326 9.04251 37.0751C9.19751 36.9176 9.38751 36.7251 9.46501 36.6501C9.54501 36.5751 9.67251 36.4626 9.74751 36.4001C9.82251 36.3376 9.92251 36.2376 9.96751 36.1751C10.015 36.1126 10.14 35.9851 10.245 35.8926C10.35 35.7976 10.515 35.6801 10.6125 35.6301C10.7075 35.5801 10.8275 35.5051 10.8775 35.4626C10.9275 35.4201 11.075 35.3026 11.2025 35.1976C11.3325 35.0951 11.4875 34.9751 11.55 34.9326C11.6125 34.8926 11.7525 34.8176 11.8625 34.7701C11.9725 34.7226 12.2025 34.5826 12.375 34.4601C12.5475 34.3376 12.8 34.1776 12.9375 34.1026C13.075 34.0301 13.255 33.9301 13.3375 33.8801C13.42 33.8326 13.65 33.6851 13.85 33.5551C14.05 33.4251 14.32 33.2476 14.45 33.1626C14.58 33.0776 14.775 32.9576 14.8825 32.8976C14.9975 32.8326 15.18 32.6951 15.32 32.5651C15.4525 32.4426 15.6125 32.3026 15.6725 32.2526C15.7325 32.2026 15.8875 32.0901 16.015 32.0001C16.1425 31.9101 16.3625 31.7476 16.5025 31.6376C16.645 31.5276 16.88 31.3351 17.025 31.2126C17.17 31.0876 17.355 30.9351 17.4375 30.8751C17.52 30.8151 17.6975 30.6776 17.8325 30.5701C17.965 30.4626 18.0875 30.3526 18.1 30.3251C18.1125 30.2976 18.29 30.1276 18.495 29.9476C18.6975 29.7676 19.06 29.4726 19.3 29.2901C19.54 29.1101 19.8375 28.8776 19.9625 28.7726C20.0875 28.6701 20.2375 28.5501 20.3 28.5076C20.3625 28.4651 20.52 28.3776 20.65 28.3151C20.8425 28.2226 20.93 28.1951 21.1125 28.1751C21.2375 28.1601 21.375 28.1276 21.4225 28.1051C21.47 28.0826 21.53 28.0301 21.555 27.9876C21.58 27.9451 21.6 27.8651 21.6 27.8001C21.6 27.7376 21.58 27.6476 21.555 27.5951C21.53 27.5426 21.3175 27.3176 21.05 27.0576C20.795 26.8126 20.53 26.5726 20.4625 26.5276C20.3925 26.4801 20.26 26.3676 20.1625 26.2751C20.065 26.1826 19.9025 26.0401 19.8 25.9576C19.6975 25.8751 19.535 25.7576 19.4375 25.6951C19.34 25.6326 19.205 25.5326 19.1375 25.4726C19.0675 25.4101 18.9625 25.3226 18.9 25.2751C18.8375 25.2276 18.6225 25.0501 18.4175 24.8826C18.215 24.7126 17.9625 24.5101 17.8575 24.4326C17.75 24.3551 17.595 24.2276 17.5125 24.1501C17.43 24.0726 17.2775 23.9476 17.175 23.8726C17.0725 23.7976 16.92 23.6776 16.8375 23.6026C16.755 23.5301 16.575 23.3826 16.4375 23.2776C16.3 23.1751 16.0925 23.0026 15.975 22.8976C15.8575 22.7951 15.695 22.6626 15.6125 22.6076C15.53 22.5526 15.36 22.4126 15.235 22.2976C15.1125 22.1826 14.8875 21.9976 14.735 21.8901C14.585 21.7801 14.4125 21.6501 14.35 21.6001C14.2875 21.5501 14.04 21.3451 13.8 21.1476C13.56 20.9476 13.2275 20.6851 13.0625 20.5626C12.8975 20.4401 12.6725 20.2626 12.5625 20.1676C12.4525 20.0726 12.2675 19.9326 12.15 19.8551C12.0325 19.7776 11.7625 19.5901 11.55 19.4376C11.3375 19.2851 11.0725 19.1001 10.9625 19.0251C10.8525 18.9526 10.6325 18.7901 10.475 18.6676C10.3175 18.5426 10.13 18.3876 10.0625 18.3226C9.99251 18.2576 9.85251 18.1476 9.75001 18.0751C9.64751 18.0026 9.46001 17.8576 9.33751 17.7551C9.21501 17.6501 8.92251 17.3751 8.69001 17.1401C8.34751 16.7926 8.22751 16.6526 8.06001 16.4001C7.94751 16.2276 7.81001 16.0251 7.75751 15.9501C7.70251 15.8751 7.64001 15.7576 7.61501 15.6876C7.59001 15.6201 7.50251 15.4201 7.42251 15.2451C7.34001 15.0676 7.27501 14.9201 7.27501 14.9126C7.27501 14.9051 7.12501 14.5926 6.94001 14.2201C6.75751 13.8451 6.58001 13.4601 6.55001 13.3626C6.52001 13.2651 6.41751 12.9901 6.32251 12.7501C6.23001 12.5101 6.11251 12.1651 6.06251 11.9876C6.01501 11.8101 5.93751 11.5326 5.81501 11.0876L5.80501 10.1001C5.79751 9.31512 5.80501 9.02762 5.83751 8.70012C5.86001 8.47262 5.88751 8.18762 5.90251 8.06262C5.91501 7.94012 5.94501 7.78262 5.96751 7.71262C5.99501 7.63262 6.05001 7.54762 6.12251 7.47512C6.20251 7.39512 6.27751 7.35012 6.36251 7.32512C6.44501 7.30012 6.60001 7.28762 6.82501 7.29012C7.01001 7.29012 7.22501 7.30512 7.30001 7.32012C7.37501 7.33762 7.61251 7.43762 7.82501 7.54262C8.06751 7.66262 8.33001 7.82012 8.52501 7.95762C8.69751 8.08012 8.91001 8.25262 9.00001 8.33762C9.09001 8.42512 9.28751 8.60512 9.44251 8.74012C9.59501 8.87762 9.83751 9.06012 9.98001 9.14762C10.1225 9.23512 10.345 9.38262 10.475 9.47512C10.605 9.56762 10.88 9.73012 11.0875 9.83262C11.2925 9.93762 11.5125 10.0551 11.575 10.0951C11.6375 10.1351 11.84 10.2876 12.025 10.4376C12.21 10.5876 12.51 10.8351 12.6875 10.9876C12.865 11.1426 13.1525 11.4001 13.325 11.5601C13.4975 11.7201 13.8225 11.9851 14.05 12.1476C14.2775 12.3126 14.535 12.5076 14.625 12.5851C14.715 12.6626 15 12.9001 15.2625 13.1151C15.525 13.3301 15.8675 13.6351 16.025 13.7951C16.185 13.9576 16.435 14.1951 16.585 14.3251C16.7325 14.4551 16.975 14.6751 17.1225 14.8126C17.27 14.9501 17.4275 15.1051 17.475 15.1601C17.5225 15.2126 17.635 15.3076 17.725 15.3701C17.815 15.4326 17.9725 15.5501 18.075 15.6326C18.1775 15.7151 18.47 15.9926 18.725 16.2501C19.095 16.6251 19.24 16.7551 19.45 16.8926C19.595 16.9876 19.8125 17.1551 19.9375 17.2651C20.06 17.3726 20.5175 17.8176 20.95 18.2501C21.3825 18.6851 22.085 19.3751 22.5075 19.7876C22.9325 20.2001 23.365 20.6376 23.4725 20.7626C23.5775 20.8876 23.735 21.0776 23.8175 21.1876C23.9 21.2976 23.995 21.4101 24.025 21.4376C24.0575 21.4651 24.19 21.6176 24.325 21.7751C24.4575 21.9326 24.65 22.1526 24.7525 22.2601C24.855 22.3701 25.05 22.5576 25.1875 22.6801C25.33 22.8076 25.5125 22.9401 25.6125 22.9926C25.765 23.0701 25.805 23.0801 25.925 23.0726C26.03 23.0651 26.09 23.0426 26.175 22.9801C26.2375 22.9351 26.53 22.6651 26.825 22.3801C27.185 22.0326 27.39 21.8151 27.4425 21.7251C27.4975 21.6301 27.53 21.5276 27.55 21.4001C27.57 21.2626 27.5725 21.1776 27.5525 21.0876C27.5375 21.0201 27.49 20.8776 27.45 20.7751C27.4025 20.6601 27.2975 20.4826 27.17 20.3126C27.06 20.1626 26.915 19.9251 26.8475 19.7876C26.775 19.6376 26.71 19.4576 26.685 19.3376C26.66 19.2101 26.645 19.0026 26.6425 18.7626C26.64 18.4801 26.65 18.3476 26.6825 18.2326C26.705 18.1451 26.7725 17.9826 26.8275 17.8701C26.885 17.7551 27.005 17.5501 27.0975 17.4151C27.1875 17.2776 27.3125 17.1101 27.375 17.0426C27.4375 16.9726 27.6225 16.8176 27.7875 16.6951C27.9525 16.5726 28.1825 16.3976 28.3 16.3076C28.4175 16.2151 28.5675 16.1076 28.6375 16.0676C28.705 16.0276 28.8475 15.9176 28.95 15.8226C29.0525 15.7276 29.2875 15.5126 29.47 15.3451C29.73 15.1051 29.835 14.9876 29.9475 14.8126C30.0275 14.6876 30.1475 14.4976 30.215 14.3876C30.3175 14.2201 30.375 14.1601 30.5875 13.9976C30.725 13.8926 30.9525 13.6876 31.09 13.5451C31.2825 13.3501 31.365 13.2426 31.4375 13.1001C31.49 12.9976 31.5975 12.8276 31.6775 12.7251C31.7575 12.6226 31.87 12.4826 31.93 12.4176C31.99 12.3526 32.1375 12.2276 32.2625 12.1426C32.43 12.0276 32.5425 11.9201 32.695 11.7376C32.81 11.6001 32.99 11.3651 33.0925 11.2126C33.195 11.0626 33.31 10.9051 33.3475 10.8676C33.3825 10.8301 33.52 10.7276 33.65 10.6401C33.78 10.5526 34.0225 10.4026 34.1875 10.3076C34.3525 10.2101 34.5375 10.1051 34.6 10.0701C34.6625 10.0351 34.8825 9.86262 35.09 9.68512C35.2975 9.50762 35.5775 9.27012 35.715 9.15762C35.85 9.04762 36.0175 8.89512 36.0875 8.82012C36.155 8.74512 36.28 8.59762 36.3625 8.48762C36.445 8.38012 36.5625 8.21512 36.625 8.12262C36.6875 8.02762 36.7775 7.88262 36.825 7.79762C36.8725 7.71262 36.9775 7.57012 37.0575 7.47762C37.1375 7.38762 37.3225 7.12762 37.4675 6.90012C37.6125 6.67262 37.81 6.38262 37.91 6.25262C38.01 6.11762 38.195 5.91762 38.3375 5.79262C38.475 5.67012 38.6425 5.50762 38.7125 5.43262C38.78 5.35512 38.8675 5.27762 38.905 5.26012C38.945 5.24012 39.035 5.21012 39.105 5.19012C39.1775 5.17012 39.3175 5.15262 39.4125 5.15262ZM6.71251 8.22512C6.69001 8.26762 6.67501 8.36762 6.67501 8.46262C6.67501 8.55262 6.69251 8.80762 6.71251 9.03262C6.73251 9.25512 6.77501 9.61762 6.80251 9.83762C6.83751 10.1001 6.89501 10.3726 6.96501 10.6251C7.02751 10.8376 7.07501 11.0251 7.07501 11.0376C7.07501 11.0526 7.13251 11.2776 7.20001 11.5376C7.27001 11.8001 7.36001 12.1151 7.40001 12.2376C7.44001 12.3626 7.50751 12.6026 7.55001 12.7751C7.59251 12.9476 7.66751 13.2051 7.71501 13.3501C7.76251 13.4951 7.87001 13.7651 7.95251 13.9501C8.03751 14.1351 8.19001 14.4676 8.29251 14.6876C8.39751 14.9076 8.53501 15.1776 8.59751 15.2876C8.66001 15.3976 8.77501 15.5726 8.85251 15.6751C8.93001 15.7776 9.10001 15.9701 9.22751 16.1026C9.35751 16.2351 9.53251 16.3976 9.61751 16.4651C9.70251 16.5326 9.89751 16.6951 10.055 16.8276C10.21 16.9601 10.445 17.1401 10.575 17.2326C10.705 17.3226 10.8825 17.4576 10.9675 17.5301C11.0525 17.6026 11.1975 17.7451 11.2925 17.8476C11.385 17.9501 11.525 18.0751 11.6 18.1251C11.675 18.1776 11.765 18.2501 11.8 18.2876C11.835 18.3251 11.9175 18.3951 11.9875 18.4451C12.055 18.4951 12.18 18.5926 12.2625 18.6601C12.345 18.7276 12.4675 18.8101 12.5375 18.8451C12.605 18.8801 12.7275 18.9751 12.81 19.0601C12.89 19.1451 13.0325 19.2701 13.125 19.3376C13.22 19.4076 13.365 19.5201 13.4525 19.5876C13.5375 19.6576 13.715 19.8026 13.8475 19.9126C13.9775 20.0226 14.135 20.1576 14.1975 20.2126C14.26 20.2676 14.4075 20.3776 14.525 20.4551C14.6425 20.5326 14.8625 20.7126 15.0125 20.8551C15.1625 20.9976 15.3725 21.1701 15.475 21.2376C15.5775 21.3026 15.7475 21.4251 15.85 21.5101C15.9525 21.5951 16.1175 21.7401 16.215 21.8376C16.3125 21.9351 16.485 22.0951 16.6025 22.1976C16.7475 22.3226 16.89 22.4201 17.0625 22.5051C17.2 22.5751 17.385 22.6751 17.475 22.7276C17.565 22.7801 17.715 22.8901 17.8125 22.9751C17.91 23.0576 18.05 23.1601 18.125 23.2051C18.205 23.2501 18.415 23.4301 18.625 23.6376C18.825 23.8326 19.075 24.0526 19.1825 24.1276C19.29 24.2026 19.4325 24.2976 19.5 24.3376C19.5675 24.3776 19.675 24.4451 19.7425 24.4826C19.8075 24.5201 19.995 24.6451 20.155 24.7576C20.3175 24.8701 20.5825 25.0701 20.7425 25.2026C20.905 25.3351 21.1 25.5076 21.175 25.5876C21.25 25.6676 21.3675 25.7901 21.4375 25.8601C21.5325 25.9551 21.6025 26.0026 21.725 26.0451C21.815 26.0776 21.9325 26.1351 21.9875 26.1776C22.0425 26.2201 22.3625 26.5201 22.7 26.8451C23.0375 27.1726 23.38 27.4951 23.4625 27.5626C23.545 27.6301 23.76 27.8276 23.9375 28.0001C24.26 28.3126 24.265 28.3176 24.65 28.5076C24.8625 28.6126 25.0875 28.7101 25.15 28.7226C25.2125 28.7376 25.37 28.7501 25.5 28.7501C25.635 28.7501 25.8025 28.7326 25.8875 28.7126C25.97 28.6901 26.11 28.6401 26.2 28.5976C26.29 28.5551 26.47 28.4576 26.6 28.3801C26.73 28.3026 26.8925 28.2201 26.9625 28.1951C27.045 28.1676 27.165 28.1526 27.3125 28.1501C27.4375 28.1501 27.6 28.1676 27.675 28.1876C27.75 28.2076 27.88 28.2576 27.9625 28.3001C28.045 28.3401 28.1675 28.4176 28.2375 28.4751C28.305 28.5301 28.445 28.6326 28.5475 28.7051C28.65 28.7776 28.825 28.9051 28.935 28.9876C29.045 29.0701 29.155 29.1701 29.18 29.2126C29.205 29.2551 29.235 29.3826 29.25 29.5001C29.265 29.6251 29.2975 29.7576 29.3325 29.8226C29.3625 29.8851 29.4425 29.9851 29.5125 30.0451C29.58 30.1051 29.7225 30.2151 29.825 30.2876C29.9275 30.3601 30.0675 30.4801 30.1375 30.5551C30.205 30.6301 30.3225 30.7801 30.395 30.8901C30.4675 31.0001 30.5525 31.1701 30.5875 31.2751C30.63 31.4026 30.675 31.4876 30.73 31.5401C30.775 31.5851 30.855 31.6326 30.905 31.6476C30.97 31.6651 31.025 31.6676 31.08 31.6501C31.125 31.6376 31.1925 31.5951 31.2275 31.5576C31.2625 31.5176 31.32 31.4376 31.355 31.3751C31.39 31.3126 31.4375 31.2426 31.46 31.2201C31.485 31.1951 31.5325 31.1751 31.57 31.1751C31.6075 31.1751 31.66 31.1951 31.69 31.2201C31.7175 31.2426 31.82 31.3576 31.9175 31.4751C32.015 31.5926 32.12 31.7376 32.15 31.8001C32.1825 31.8626 32.285 32.0376 32.3825 32.1876C32.48 32.3376 32.595 32.5426 32.64 32.6376C32.6825 32.7326 32.7325 32.8701 32.7475 32.9376C32.7625 33.0076 32.7925 33.2651 32.8125 33.5126C32.835 33.8101 32.865 34.0176 32.9 34.1251C32.9275 34.2151 32.985 34.3326 33.0275 34.3876C33.07 34.4426 33.14 34.5126 33.1825 34.5451C33.2275 34.5751 33.3025 34.6076 33.35 34.6151C33.4 34.6226 33.4675 34.6151 33.51 34.5951C33.55 34.5776 33.5975 34.5326 33.615 34.4951C33.635 34.4551 33.65 34.3776 33.65 34.3201C33.65 34.2601 33.6175 34.1001 33.5775 33.9626C33.5375 33.8251 33.4925 33.6126 33.4775 33.4876C33.4625 33.3626 33.45 33.1951 33.4475 33.1126C33.4475 33.0301 33.4575 32.9326 33.4725 32.8951C33.4875 32.8551 33.5225 32.8201 33.55 32.8126C33.5775 32.8051 33.63 32.8151 33.6675 32.8351C33.7075 32.8526 33.7975 32.9351 33.8725 33.0151C33.9475 33.0976 34.06 33.2426 34.125 33.3376C34.19 33.4326 34.29 33.6301 34.345 33.7751C34.41 33.9426 34.4925 34.0951 34.57 34.2001C34.6375 34.2901 34.7975 34.4601 34.9225 34.5826C35.0475 34.7026 35.1725 34.8426 35.1975 34.8951C35.2225 34.9451 35.2525 35.0326 35.2625 35.0876C35.2725 35.1426 35.29 35.2276 35.305 35.2751C35.32 35.3226 35.36 35.3926 35.3975 35.4326C35.435 35.4726 35.49 35.5001 35.525 35.5001C35.56 35.5001 35.615 35.4801 35.6475 35.4576C35.6825 35.4326 35.7225 35.3801 35.74 35.3376C35.7575 35.2951 35.7775 35.2001 35.7875 35.1251C35.795 35.0501 35.825 34.9501 35.8525 34.9076C35.8825 34.8551 35.92 34.8251 35.955 34.8251C35.9875 34.8226 36.03 34.8426 36.0525 34.8676C36.075 34.8926 36.1 34.9351 36.11 34.9626C36.12 34.9901 36.1425 35.1876 36.1625 35.4001C36.1975 35.7651 36.205 35.7976 36.2975 35.9876C36.3525 36.0976 36.4525 36.2701 36.5225 36.3701C36.5925 36.4676 36.715 36.6001 36.7925 36.6626C36.8725 36.7251 37 36.7976 37.075 36.8276C37.15 36.8576 37.245 36.8926 37.2875 36.9101C37.3275 36.9251 37.3875 36.9601 37.4225 36.9876C37.455 37.0151 37.525 37.1126 37.5775 37.2076C37.6325 37.3001 37.7075 37.3976 37.75 37.4251C37.795 37.4551 37.8675 37.4751 37.93 37.4751C37.9925 37.4751 38.07 37.4551 38.1175 37.4251C38.1625 37.3976 38.2175 37.3751 38.2375 37.3751C38.2575 37.3751 38.28 37.3926 38.2875 37.4126C38.295 37.4326 38.3 37.5076 38.3 37.5751C38.3 37.6451 38.2775 37.8276 38.25 37.9826C38.225 38.1351 38.18 38.3251 38.155 38.4001C38.1275 38.4751 38.075 38.6001 38.0375 38.6751C38 38.7501 37.9025 38.9026 37.825 39.0126C37.73 39.1426 37.665 39.2651 37.6375 39.3626C37.6075 39.4651 37.5975 39.5676 37.605 39.6876C37.61 39.7976 37.6325 39.8926 37.665 39.9476C37.69 39.9951 37.74 40.0526 37.775 40.0801C37.81 40.1051 37.8825 40.1376 37.9375 40.1501C38 40.1651 38.0825 40.1651 38.1625 40.1501C38.23 40.1376 38.3325 40.0951 38.3875 40.0551C38.4425 40.0176 38.5125 39.9351 38.5425 39.8751C38.5725 39.8126 38.6175 39.6826 38.64 39.5876C38.6625 39.4926 38.69 39.3726 38.7025 39.3251C38.7125 39.2776 38.7675 39.1701 38.825 39.0876C38.88 39.0051 38.9525 38.8651 38.985 38.7751C39.02 38.6851 39.065 38.5976 39.085 38.5826C39.12 38.5551 39.1425 38.5701 39.2425 38.6726C39.32 38.7501 39.3925 38.8001 39.45 38.8126C39.515 38.8276 39.56 38.8201 39.625 38.7826C39.6725 38.7576 39.7375 38.6951 39.77 38.6476C39.8 38.6001 39.85 38.4901 39.88 38.4001C39.9075 38.3101 39.9475 38.2076 39.965 38.1701C39.985 38.1301 40.0225 38.0876 40.05 38.0751C40.0875 38.0551 40.1125 38.0601 40.1525 38.0951C40.1975 38.1301 40.2075 38.1776 40.2225 38.4001C40.2375 38.6076 40.255 38.6851 40.3025 38.7726C40.34 38.8426 40.4275 38.9351 40.5375 39.0176C40.6325 39.0926 40.7275 39.1701 40.745 39.1951C40.7625 39.2176 40.775 39.3001 40.775 39.3751C40.775 39.4501 40.7475 39.6126 40.7125 39.7376C40.675 39.8626 40.5775 40.0951 40.4925 40.2601C40.3925 40.4476 40.275 40.6276 40.1675 40.7526L40 40.9501C39.9975 41.4451 39.9875 41.6676 39.9775 41.7626C39.965 41.8701 39.965 41.9876 39.98 42.0626C39.995 42.1326 40.0325 42.2401 40.065 42.3076C40.0975 42.3726 40.195 42.5176 40.2825 42.6326C40.37 42.7451 40.495 42.9101 40.565 43.0001C40.645 43.1051 40.73 43.2676 40.81 43.4626C40.8775 43.6276 40.9575 43.8026 40.9875 43.8501C41.0175 43.8976 41.1025 43.9976 41.1775 44.0701C41.2525 44.1451 41.385 44.2526 41.475 44.3126C41.565 44.3701 41.6925 44.4476 41.7625 44.4826C41.83 44.5176 41.9825 44.5726 42.1 44.6101C42.2175 44.6451 42.425 44.6926 42.5625 44.7151C42.7 44.7351 43.0425 44.7601 43.325 44.7676C43.64 44.7776 43.93 44.7701 44.08 44.7526C44.215 44.7376 44.395 44.7001 44.48 44.6676C44.5675 44.6376 44.705 44.5726 44.785 44.5251C44.8675 44.4776 44.9975 44.3751 45.0725 44.3001C45.15 44.2251 45.2425 44.1001 45.28 44.0251C45.3175 43.9501 45.365 43.8151 45.39 43.7251C45.4125 43.6351 45.4325 43.4726 45.43 43.3626C45.43 43.2001 45.4 43.0476 45.2775 42.5626C45.1925 42.2326 45.1125 41.8676 45.1 41.7501C45.085 41.6326 45.06 41.4651 45.045 41.3751C45.03 41.2851 44.985 41.1401 44.945 41.0501C44.905 40.9601 44.8375 40.8426 44.795 40.7876C44.7525 40.7326 44.5825 40.5526 44.415 40.3876C44.15 40.1251 44.0925 40.0526 43.9625 39.8176C43.88 39.6676 43.755 39.4851 43.6875 39.4076C43.6175 39.3301 43.4725 39.1926 43.3625 39.1001C43.2525 39.0076 43.13 38.8976 43.0875 38.8526C43.045 38.8076 42.9625 38.7376 42.9 38.6951C42.8375 38.6526 42.635 38.4626 42.45 38.2751C42.1725 37.9901 42.0775 37.9126 41.9125 37.8251C41.745 37.7326 41.6375 37.6426 41.2375 37.2501C40.975 36.9926 40.65 36.6876 40.5125 36.5676C40.375 36.4501 40.0575 36.1601 39.8075 35.9201C39.5575 35.6826 39.29 35.4076 39.21 35.3126C39.12 35.2001 38.94 35.0376 38.715 34.8651C38.52 34.7151 38.2825 34.5226 38.1875 34.4401C38.0925 34.3551 37.9175 34.2076 37.8 34.1101C37.6825 34.0126 37.515 33.8801 37.425 33.8151C37.335 33.7501 37.205 33.6626 37.1375 33.6251C37.0675 33.5851 36.92 33.4776 36.8075 33.3826C36.695 33.2901 36.395 33.0426 36.145 32.8351C35.8925 32.6276 35.57 32.3376 35.425 32.1901C35.28 32.0426 35.0325 31.7901 34.875 31.6276C34.7175 31.4676 34.485 31.2451 34.3575 31.1376C34.1975 30.9951 33.9525 30.8301 33.52 30.5726C33.1875 30.3701 32.8325 30.1676 32.7375 30.1201C32.6425 30.0726 32.5225 30.0176 32.475 30.0001C32.4275 29.9801 32.32 29.9201 32.2375 29.8651C32.155 29.8101 32.0075 29.6901 31.9125 29.6001C31.8175 29.5101 31.63 29.3476 31.5 29.2376C31.37 29.1301 31.1275 28.9101 30.9625 28.7501C30.7975 28.5901 30.6 28.4101 30.525 28.3526C30.45 28.2926 30.3375 28.2201 30.275 28.1876C30.2125 28.1576 30.1 28.1126 30.025 28.0876C29.95 28.0626 29.815 28.0051 29.725 27.9601C29.635 27.9151 29.4275 27.7626 29.2625 27.6251C29.0975 27.4851 28.8775 27.3076 28.775 27.2276C28.6725 27.1476 28.48 27.0126 28.35 26.9276C28.22 26.8401 28.0525 26.7176 27.98 26.6526C27.905 26.5901 27.675 26.3951 27.4675 26.2201C27.2575 26.0451 26.9925 25.8301 26.8775 25.7451C26.7625 25.6576 26.6025 25.5326 26.5225 25.4626C26.4425 25.3951 26.2225 25.2001 26.0325 25.0301C25.8425 24.8601 25.525 24.5551 25.325 24.3551C25.125 24.1526 24.7825 23.8126 24.5625 23.6001C24.3425 23.3851 24.0425 23.0776 23.895 22.9126C23.7475 22.7476 23.4325 22.4301 23.195 22.2051C22.9575 21.9801 22.6625 21.6901 22.5375 21.5576C22.4125 21.4251 22.105 21.1051 21.85 20.8451C21.5875 20.5776 21.285 20.2951 21.15 20.1951C21.02 20.0976 20.795 19.8976 20.65 19.7501C20.505 19.6051 20.1575 19.2726 19.875 19.0126C19.595 18.7501 19.2175 18.3901 19.0375 18.2126C18.86 18.0326 18.5775 17.7476 18.4125 17.5751C18.2475 17.4026 17.875 17.0401 17.5875 16.7701C17.3 16.5001 16.9675 16.2051 16.85 16.1151C16.7325 16.0251 16.5525 15.8851 16.45 15.8076C16.3475 15.7301 16.0825 15.5251 15.8625 15.3526C15.5925 15.1401 15.3025 14.8776 14.975 14.5476C14.645 14.2176 14.3875 13.9826 14.175 13.8251C14.0025 13.6951 13.7675 13.5101 13.65 13.4101C13.5325 13.3126 13.33 13.1501 13.2 13.0526C13.0675 12.9551 12.69 12.6026 12.35 12.2676C12.0125 11.9351 11.58 11.5151 11.3875 11.3351C11.195 11.1576 10.97 10.9651 10.8875 10.9076C10.805 10.8526 10.6075 10.6901 10.4475 10.5476C10.2875 10.4051 10.0525 10.2126 9.92251 10.1201C9.79251 10.0251 9.52501 9.84262 9.32501 9.70762C9.12501 9.57512 8.85001 9.38262 8.71251 9.28012C8.57501 9.17512 8.31501 8.97262 8.13751 8.82512C7.96001 8.68012 7.73501 8.50012 7.63751 8.42762C7.54001 8.35512 7.38501 8.24762 7.28751 8.19262C7.16001 8.11762 7.07751 8.08762 6.98751 8.08012C6.90251 8.07512 6.84501 8.08512 6.80501 8.11012C6.77501 8.13262 6.73251 8.18512 6.71251 8.22512ZM22.45 28.8376C22.36 28.9201 22.215 29.0426 22.125 29.1051C22.035 29.1676 21.8325 29.3001 21.675 29.4001C21.5175 29.5001 21.2825 29.6726 21.1525 29.7851C21.025 29.8951 20.8675 30.0501 20.8025 30.1276C20.74 30.2051 20.615 30.3726 20.525 30.5001C20.415 30.6601 20.2525 30.8376 20.0125 31.0651C19.82 31.2451 19.545 31.4926 19.4 31.6126C19.2275 31.7526 19.0425 31.8776 18.865 31.9701C18.695 32.0601 18.545 32.1601 18.465 32.2376C18.3925 32.3076 18.295 32.4351 18.245 32.5251C18.195 32.6151 18.11 32.7276 18.0575 32.7776C18.005 32.8251 17.8675 32.9426 17.75 33.0376C17.6325 33.1326 17.3675 33.3576 17.1625 33.5351C16.955 33.7126 16.715 33.9276 16.625 34.0076C16.535 34.0901 16.3225 34.2701 16.15 34.4076C15.9775 34.5451 15.7475 34.7401 15.6375 34.8376C15.4825 34.9751 15.3675 35.0501 15.125 35.1676C14.8725 35.2901 14.7725 35.3551 14.61 35.5026C14.5 35.6051 14.26 35.7826 14.0775 35.9001C13.8975 36.0176 13.57 36.2301 13.355 36.3726C13.14 36.5151 12.85 36.7176 12.7125 36.8276C12.575 36.9351 12.3625 37.1151 12.2375 37.2251C12.115 37.3376 11.8725 37.5401 11.7 37.6751C11.5275 37.8076 11.3425 37.9401 11.2875 37.9676C11.2325 37.9976 11.115 38.0751 11.025 38.1401C10.935 38.2076 10.785 38.3351 10.69 38.4251C10.595 38.5151 10.4575 38.6726 10.385 38.7751C10.3125 38.8776 10.1575 39.0751 10.0375 39.2126C9.91751 39.3501 9.72751 39.5576 9.61251 39.6751C9.50001 39.7926 9.35251 39.9601 9.28251 40.0501C9.21251 40.1401 9.07751 40.2876 8.98501 40.3776C8.89001 40.4676 8.72251 40.6076 8.61251 40.6901C8.50251 40.7726 8.31001 40.8901 8.18751 40.9526C8.06251 41.0176 7.92501 41.1101 7.88001 41.1601C7.81751 41.2301 7.80001 41.2726 7.80001 41.3501C7.80001 41.4051 7.81751 41.4876 7.84001 41.5326C7.86251 41.5751 7.95501 41.7126 8.04751 41.8326C8.13751 41.9551 8.25251 42.0776 8.30001 42.1051C8.36501 42.1451 8.40001 42.1501 8.43751 42.1326C8.46501 42.1201 8.52501 42.0451 8.56751 41.9676C8.61501 41.8851 8.69501 41.7926 8.75501 41.7501C8.81501 41.7076 8.91501 41.6626 8.98001 41.6501C9.04751 41.6351 9.13001 41.6251 9.16751 41.6251C9.20751 41.6251 9.27751 41.6451 9.32501 41.6726C9.39251 41.7076 9.43751 41.7676 9.51251 41.9151C9.60001 42.0901 9.62001 42.1126 9.68751 42.1201C9.73501 42.1251 9.81001 42.1001 9.88751 42.0551C9.95501 42.0151 10.135 41.9351 10.2875 41.8726C10.44 41.8126 10.5875 41.7401 10.6175 41.7126C10.6675 41.6676 10.6725 41.6526 10.65 41.5626C10.635 41.5076 10.6075 41.2326 10.585 40.9501C10.5625 40.6601 10.5525 40.3401 10.56 40.2126C10.57 40.0876 10.6025 39.8526 10.6375 39.6876C10.675 39.5101 10.725 39.3476 10.76 39.2876C10.7925 39.2326 10.8925 39.1101 10.9775 39.0151C11.065 38.9201 11.1725 38.8276 11.2125 38.8076C11.2525 38.7876 11.3125 38.7776 11.3425 38.7851C11.3775 38.7951 11.4075 38.8276 11.4175 38.8701C11.43 38.9076 11.4375 39.1501 11.435 39.4126C11.435 39.8051 11.42 39.9876 11.3525 40.4751C11.305 40.7976 11.2475 41.1201 11.2225 41.1876C11.1925 41.2701 11.1375 41.3501 11.0575 41.4251C10.99 41.4876 10.8825 41.5751 10.8175 41.6201C10.725 41.6826 10.7025 41.7126 10.7125 41.7576C10.7175 41.7876 10.735 41.8976 10.75 42.0001C10.765 42.1026 10.775 42.4276 10.7725 42.7251C10.77 43.0201 10.765 43.3426 10.765 43.4401C10.7625 43.5876 10.7725 43.6301 10.8125 43.6726C10.84 43.7026 10.89 43.7251 10.925 43.7251C10.9675 43.7226 11.0375 43.6701 11.15 43.5526C11.24 43.4601 11.42 43.2876 11.55 43.1701C11.7475 42.9951 11.805 42.9251 11.8925 42.7601C11.95 42.6526 12.0225 42.5376 12.055 42.5076C12.0875 42.4776 12.1475 42.4401 12.1875 42.4251C12.2275 42.4101 12.335 42.3801 12.425 42.3601C12.515 42.3401 12.6425 42.2926 12.7125 42.2526C12.8 42.2051 12.8675 42.1376 12.9375 42.0351C12.99 41.9551 13.075 41.7926 13.1225 41.6751C13.1675 41.5576 13.235 41.3326 13.2675 41.1751C13.305 40.9951 13.33 40.7901 13.3325 40.6251C13.3375 40.3751 13.3325 40.3551 13.2625 40.2251C13.2225 40.1501 13.115 40.0151 13.0275 39.9251C12.9375 39.8351 12.8525 39.7251 12.8325 39.6826C12.815 39.6376 12.7875 39.4826 12.775 39.3376C12.7575 39.1601 12.7575 39.0251 12.775 38.9201C12.79 38.8326 12.8325 38.7076 12.87 38.6401C12.9075 38.5726 12.9725 38.4901 13.0125 38.4551C13.0525 38.4201 13.15 38.3626 13.225 38.3301C13.3225 38.2851 13.4075 38.2651 13.5125 38.2651C13.6225 38.2651 13.68 38.2776 13.7325 38.3126C13.7725 38.3401 13.825 38.4076 13.85 38.4626C13.88 38.5201 13.925 38.7451 13.96 39.0001C13.995 39.2401 14.04 39.4976 14.0625 39.5701C14.085 39.6501 14.135 39.7376 14.1925 39.8001C14.265 39.8751 14.3075 39.8976 14.3675 39.9001C14.42 39.9001 14.4775 39.8776 14.5175 39.8401C14.5575 39.8076 14.6975 39.6201 14.83 39.4226C14.9625 39.2251 15.1225 38.9551 15.185 38.8251C15.2475 38.6951 15.31 38.5251 15.3275 38.4501C15.3425 38.3751 15.3575 38.2001 15.36 38.0626C15.36 37.9251 15.3575 37.7126 15.3525 37.5876C15.3475 37.4351 15.3575 37.3351 15.38 37.2751C15.4 37.2276 15.4425 37.1626 15.4775 37.1301C15.51 37.0976 15.6 37.0551 15.675 37.0326C15.75 37.0126 15.8475 37.0026 15.8875 37.0101C15.9275 37.0176 16.04 37.0751 16.1375 37.1376C16.25 37.2076 16.34 37.2501 16.3925 37.2501C16.445 37.2501 16.4925 37.2276 16.5425 37.1801C16.58 37.1401 16.6425 37.0326 16.68 36.9351C16.7175 36.8401 16.78 36.6451 16.8175 36.5001C16.8575 36.3551 16.92 36.1851 16.9575 36.1201C16.9975 36.0501 17.06 35.9826 17.105 35.9601C17.15 35.9376 17.2875 35.9026 17.4125 35.8826C17.55 35.8601 17.6775 35.8251 17.7375 35.7876C17.7925 35.7551 17.8625 35.6976 17.89 35.6576C17.92 35.6201 17.995 35.4876 18.0575 35.3626C18.12 35.2376 18.19 35.0926 18.2125 35.0376C18.235 34.9826 18.2925 34.8826 18.3375 34.8126C18.39 34.7326 18.4625 34.6651 18.5425 34.6201C18.6075 34.5851 18.78 34.5201 18.925 34.4751C19.07 34.4301 19.26 34.3601 19.3475 34.3151C19.435 34.2726 19.6025 34.1526 19.7225 34.0476C19.84 33.9451 20.1125 33.6926 20.325 33.4876C20.5375 33.2826 20.82 33.0076 20.9525 32.8776C21.085 32.7451 21.2225 32.5876 21.2575 32.5251C21.2925 32.4626 21.36 32.3226 21.4075 32.2126C21.4525 32.1026 21.5175 31.9726 21.55 31.9276C21.585 31.8801 21.73 31.7501 21.8725 31.6401C22.0675 31.4901 22.1875 31.3701 22.3425 31.1751C22.4875 30.9926 22.605 30.8051 22.73 30.5626C22.83 30.3701 22.9525 30.1276 23.0075 30.0251C23.1 29.8476 23.105 29.8226 23.1275 29.5001C23.1425 29.3151 23.145 29.0951 23.1375 29.0126C23.1275 28.9301 23.105 28.8351 23.0875 28.8001C23.07 28.7651 23.0225 28.7076 22.9775 28.6701C22.9275 28.6251 22.8725 28.6001 22.8175 28.6001C22.775 28.6001 22.71 28.6176 22.675 28.6426C22.64 28.6651 22.54 28.7526 22.45 28.8376ZM7.33001 42.9301C7.27251 43.0176 7.20501 43.1426 7.18251 43.2126C7.16001 43.2876 7.14751 43.3876 7.15251 43.4626C7.16001 43.5301 7.18251 43.6176 7.20751 43.6551C7.23001 43.6951 7.30251 43.7501 7.36751 43.7776C7.46751 43.8226 7.50251 43.8276 7.57501 43.8051C7.62251 43.7901 7.69251 43.7451 7.72751 43.7076C7.76501 43.6701 7.80751 43.5926 7.82501 43.5376C7.84251 43.4826 7.85751 43.3251 7.86001 43.1876C7.86001 43.0501 7.84751 42.8951 7.83001 42.8426C7.81501 42.7926 7.77501 42.7326 7.74251 42.7126C7.71251 42.6926 7.66501 42.6751 7.63751 42.6751C7.61001 42.6751 7.55251 42.6976 7.51251 42.7251C7.47001 42.7526 7.39001 42.8451 7.33001 42.9301ZM19.1 32.7276C19.135 32.7251 19.2025 32.7451 19.25 32.7701C19.3125 32.8001 19.34 32.8351 19.3575 32.9001C19.37 32.9576 19.3675 33.0301 19.345 33.1101C19.325 33.1851 19.285 33.2551 19.2425 33.2926C19.205 33.3226 19.1325 33.3576 19.08 33.3651C19.0225 33.3751 18.95 33.3651 18.8875 33.3426C18.8175 33.3151 18.775 33.2776 18.7425 33.2151C18.72 33.1651 18.7 33.0826 18.7 33.0301C18.7 32.9801 18.7175 32.9126 18.74 32.8826C18.7625 32.8501 18.805 32.8126 18.835 32.7951C18.8625 32.7801 18.92 32.7576 18.9625 32.7476C19.0025 32.7376 19.065 32.7301 19.1 32.7276ZM15.49 35.4801C15.6525 35.4851 15.705 35.4976 15.75 35.5376C15.78 35.5651 15.825 35.6276 15.85 35.6751C15.875 35.7226 15.9075 35.8226 15.9225 35.8951C15.9375 35.9651 15.9575 36.1451 15.98 36.5626L15.9 36.6376C15.8375 36.6976 15.795 36.7151 15.6925 36.7226C15.62 36.7251 15.495 36.7176 15.4125 36.7026C15.3075 36.6826 15.2425 36.6526 15.1925 36.6051C15.155 36.5676 15.0975 36.4751 15.0625 36.4001C15.03 36.3251 14.9825 36.1776 14.9625 36.0751C14.94 35.9726 14.9275 35.8501 14.935 35.8076C14.9425 35.7626 14.98 35.6901 15.0175 35.6451C15.0575 35.6026 15.1325 35.5451 15.1875 35.5201C15.265 35.4851 15.335 35.4751 15.49 35.4801ZM41.625 41.9651C41.6725 41.9726 41.8075 42.0201 41.925 42.0676C42.0425 42.1176 42.2875 42.2426 42.47 42.3476C42.7075 42.4826 42.9 42.6201 43.1325 42.8151C43.315 42.9676 43.5825 43.2076 43.7275 43.3526C43.8725 43.4951 44.03 43.6701 44.075 43.7376C44.135 43.8251 44.16 43.8926 44.16 43.9601C44.1625 44.0376 44.1475 44.0676 44.0925 44.1101C44.0275 44.1576 43.995 44.1626 43.6925 44.1551C43.43 44.1501 43.34 44.1376 43.255 44.0976C43.16 44.0551 43.14 44.0276 43.04 43.8201C42.9825 43.6926 42.86 43.4926 42.7725 43.3776C42.685 43.2626 42.5725 43.1401 42.525 43.1076C42.4725 43.0726 42.4 43.0501 42.3425 43.0501C42.2825 43.0501 42.2325 43.0676 42.2 43.1001C42.1725 43.1276 42.14 43.1926 42.125 43.2451C42.1125 43.2951 42.1 43.3976 42.1 43.4701C42.1 43.5626 42.0875 43.6126 42.055 43.6401C42.0275 43.6651 41.99 43.6751 41.95 43.6626C41.915 43.6551 41.8275 43.6001 41.7525 43.5426C41.675 43.4826 41.5875 43.3851 41.5475 43.3126C41.51 43.2451 41.4625 43.1026 41.44 43.0001C41.42 42.8976 41.39 42.6776 41.3775 42.5126C41.36 42.3151 41.36 42.1801 41.375 42.1201C41.3925 42.0576 41.4225 42.0126 41.4675 41.9876C41.5125 41.9651 41.57 41.9551 41.625 41.9651Z" fill="white"/>
</svg>
