<svg width="96" height="70" viewBox="0 0 96 70" fill="none" xmlns="http://www.w3.org/2000/svg">
<path d="M87.5228 41.2933V50.2484H84.7456V30.2695H87.5228V38.8562H90.6968V30.2695H93.4456V50.2484H90.6968V41.2933H87.5228Z" fill="#E63A50"/>
<path d="M76.5345 50.2484H73.7573V30.2695H78.0081C79.3306 30.2695 80.3981 30.6946 81.2104 31.5448C82.0228 32.3949 82.429 33.5852 82.429 35.1155V40.2448C82.429 41.7562 82.0228 42.937 81.2104 43.7872C80.3981 44.6184 79.3306 45.0341 78.0081 45.0341H76.5345V50.2484ZM77.6681 32.9334H76.5345V42.3986H77.6681C78.0837 42.3986 78.4521 42.3135 78.7733 42.1435C79.1134 41.9735 79.3495 41.709 79.4818 41.35C79.6329 40.9722 79.7085 40.5849 79.7085 40.1881V35.1438C79.7085 33.6702 79.0283 32.9334 77.6681 32.9334Z" fill="#E63A50"/>
<path d="M71.4136 30.2695V32.9334H66.7093V38.8562H70.2233V41.2933H66.7093V47.5846H71.4136V50.2484H63.9604V30.2695H71.4136Z" fill="#E63A50"/>
<path d="M62.1064 30.2695V32.9334H59.4425V50.2484H56.6653V32.9334H54.0298V30.2695H62.1064Z" fill="#E63A50"/>
<path d="M49.0405 30.0713C50.2875 30.0713 51.3171 30.4775 52.1295 31.2899C52.9419 32.1022 53.3481 33.1886 53.3481 34.5488H50.6559C50.6559 33.9254 50.4953 33.4625 50.1741 33.1602C49.8529 32.8391 49.4656 32.6785 49.0122 32.6785C48.5777 32.6785 48.2093 32.8107 47.907 33.0752C47.6236 33.3397 47.4819 33.6987 47.4819 34.1521C47.4819 34.9078 47.7747 35.7013 48.3604 36.5325L51.9311 41.7752C52.3845 42.4554 52.7624 43.1449 53.0647 43.844C53.3669 44.5241 53.5181 45.327 53.5181 46.2528C53.5181 47.5186 53.1025 48.5388 52.2712 49.3134C51.4588 50.088 50.3914 50.4753 49.0689 50.4753C47.7275 50.4753 46.6317 50.0596 45.7816 49.2284C44.9503 48.3782 44.5347 47.2541 44.5347 45.856H47.2835C47.2835 46.5173 47.4536 47.0085 47.7936 47.3297C48.1526 47.6319 48.5871 47.7831 49.0972 47.7831C49.5695 47.7831 49.9663 47.6414 50.2875 47.358C50.6086 47.0557 50.7692 46.659 50.7692 46.1678C50.7692 45.8844 50.722 45.5726 50.6275 45.2326C50.5331 44.8736 50.2497 44.3446 49.7774 43.6456L46.2067 38.3746C45.7532 37.6944 45.3848 37.0332 45.1014 36.3909C44.8369 35.7296 44.7047 34.9739 44.7047 34.1237C44.7047 32.8957 45.1109 31.9133 45.9233 31.1765C46.7357 30.4397 47.7747 30.0713 49.0405 30.0713Z" fill="#E63A50"/>
<path d="M39.4148 30.2695V32.9334H34.994V38.8562H38.2246V41.2933H34.994V50.2484H32.2451V30.2695H39.4148Z" fill="#E63A50"/>
<path d="M29.9018 30.2695V32.9334H25.1976V38.8562H28.7116V41.2933H25.1976V47.5846H29.9018V50.2484H22.4487V30.2695H29.9018Z" fill="#E63A50"/>
<path d="M13.7132 41.2933V50.2484H10.936V30.2695H13.7132V38.8562H16.8872V30.2695H19.6361V50.2484H16.8872V41.2933H13.7132Z" fill="#E63A50"/>
<path d="M8.8984 35.5407H6.12119V34.6055C6.12119 33.9632 5.96061 33.4908 5.63943 33.1886C5.31826 32.8863 4.92152 32.7351 4.4492 32.7351C3.95799 32.7351 3.5518 32.8863 3.23063 33.1886C2.90946 33.4908 2.74887 33.9632 2.74887 34.6055V45.941C2.74887 46.5834 2.90946 47.0557 3.23063 47.358C3.5518 47.6414 3.95799 47.7831 4.4492 47.7831C4.94041 47.7831 5.33715 47.6414 5.63943 47.358C5.96061 47.0557 6.12119 46.5834 6.12119 45.941V44.8925H8.8984V45.856C8.8984 47.1974 8.48277 48.3026 7.65149 49.1717C6.82022 50.0218 5.75279 50.4469 4.4492 50.4469C3.14561 50.4469 2.07818 50.0218 1.24691 49.1717C0.415637 48.3026 0 47.1974 0 45.856V34.6905C0 33.3303 0.415637 32.225 1.24691 31.3749C2.07818 30.5058 3.14561 30.0713 4.4492 30.0713C5.75279 30.0713 6.82022 30.5058 7.65149 31.3749C8.48277 32.225 8.8984 33.3303 8.8984 34.6905V35.5407Z" fill="#E63A50"/>
<path d="M73.8941 0.0243776L74.9312 0C76.7583 0.0143168 78.5169 0.51104 79.7908 1.49364C82.2322 3.37636 83.0534 6.1014 82.9941 8.63747C82.9691 9.7049 82.8605 10.8196 82.5662 11.8654C81.8224 14.5102 79.6947 17.6729 77.5614 19.8414C76.4132 21.0084 75.0176 22.1551 73.6145 23.1563L95.516 23.1503L95.5239 23.836L0.211656 23.8537L0.193359 23.1535L3.21721 23.1488L19.6051 23.1378C19.3219 22.6752 18.9636 22.2284 18.6426 21.779C18.0308 20.9223 17.421 20.0491 16.8981 19.1608C14.8254 15.6395 12.9499 9.72532 13.6362 5.89408C13.8641 4.62183 14.2839 3.32708 15.7359 2.51698C16.6862 1.98681 17.8451 1.8621 19.0067 1.99302C20.6773 2.18133 22.2341 2.81139 23.6397 3.47651C26.532 4.84513 28.9966 6.51427 31.0262 8.56994C33.7837 11.3628 35.7563 14.0413 36.5811 17.4757C36.7567 18.207 36.9173 18.9523 36.9426 19.696C36.9794 20.784 36.7851 22.062 36.5571 23.1406L56.7774 23.166C57.1355 21.7478 57.6905 20.3446 58.1421 18.9408C59.5866 14.4519 61.0093 9.90484 64.1503 5.86662C65.4955 4.13724 67.0724 2.62172 69.2612 1.42803C69.8831 1.08877 70.5324 0.768235 71.2486 0.549036C72.1041 0.287196 72.9704 0.213028 73.8471 0.0342493L73.8941 0.0243776ZM79.5544 2.82044C78.6999 3.57382 78.0465 4.4533 77.3487 5.2881C76.2772 6.5696 75.2154 7.85435 74.1623 9.14409C72.1588 11.5979 70.2233 14.0794 68.2551 16.5487C66.5078 18.741 64.7078 20.9192 63.0322 23.1418L63.9946 23.1507L65.4746 23.1467C66.6154 22.2167 67.534 21.1227 68.5749 20.13C72.6133 16.2777 78.9586 10.3616 80.1857 5.56549C80.3033 5.10536 80.4587 4.56166 80.4137 4.09524C80.3752 3.6934 80.0068 3.10669 79.5858 2.83789L79.5544 2.82044ZM77.4193 1.61577L77.375 1.64877C76.8764 2.01237 76.2345 2.27668 75.6714 2.58292C74.8373 3.03635 74.1503 3.57469 73.4941 4.16185C69.9764 7.31006 67.2339 11.6461 65.0147 15.3847C64.6096 16.067 64.1676 16.7374 63.7681 17.4215C63.239 18.327 62.762 19.2487 62.2892 20.1709C61.8431 21.0408 61.1205 22.2846 60.8457 23.1653L62.3566 23.1579C62.7403 22.4774 63.1447 21.8227 63.635 21.1802C64.1232 20.54 64.674 19.9278 65.1671 19.2899C66.5379 17.5164 67.8814 15.7344 69.2809 13.9721C71.757 10.8543 74.2147 7.72167 76.9037 4.70137C77.5908 3.92961 78.2096 3.10457 78.9611 2.36752C78.5667 2.09688 77.9768 1.66017 77.4193 1.61577ZM74.0363 0.940721C73.5296 1.11078 73.0166 1.27124 72.5527 1.50067C71.964 1.79173 71.4321 2.16791 70.9283 2.53561C67.3375 5.15667 65.3754 8.86765 63.6288 12.3065C62.3817 14.7621 61.3352 17.2889 60.3657 19.8114C59.9388 20.922 59.4685 22.0339 59.1247 23.1605L60.1492 23.1653L60.5405 22.2011C61.1149 21.1128 61.5476 19.9811 62.1192 18.8903C62.8886 17.4218 63.7643 15.9821 64.6303 14.5439C66.687 11.1295 69.6587 6.3723 72.9809 3.60682C73.4389 3.22555 73.9366 2.79449 74.458 2.46376C75.1587 2.01935 75.9429 1.65562 76.644 1.21094C76.4791 1.1362 76.2989 1.04324 76.1144 0.999565C75.5229 0.859637 74.6607 0.917157 74.0363 0.940721ZM81.0827 4.91874C80.8708 5.60214 80.746 6.31062 80.4559 6.97848C79.2027 9.862 77.1739 12.3839 74.9099 14.8824C73.3515 16.6022 71.6949 18.3043 69.9741 19.9381C68.8302 21.0242 67.6348 22.0774 66.4633 23.1468L67.4065 23.1319L68.73 23.1385C69.1457 22.8907 69.5061 22.5825 69.8757 22.2981C70.6277 21.7196 71.3656 21.1322 72.0939 20.5373C73.5258 19.3671 75.04 18.1804 76.3329 16.926C76.8493 16.4249 77.3053 15.8829 77.7679 15.3538C79.2011 13.7153 80.2149 12.3955 81.0763 10.5377C81.384 9.87386 81.6639 9.19738 81.7677 8.49724C81.8743 7.77744 81.8268 5.55294 81.1767 4.98101L81.0827 4.91874ZM71.8613 1.04134C70.7652 1.31685 70.289 1.65756 69.4077 2.18657C68.8908 2.49678 68.3351 2.79145 67.8566 3.13259C66.0663 4.40895 64.6727 6.11411 63.5813 7.7541C60.8168 11.9078 59.6252 16.6719 58.0941 21.1277C57.9747 21.4753 57.3109 22.9476 57.3382 23.1442L57.5064 23.171L58.4522 23.1721C58.798 21.9857 59.2829 20.84 59.7116 19.6707C60.9119 16.3971 62.2746 13.1691 64.0112 10.0289C64.6216 8.92524 65.2297 7.82036 65.9953 6.76957C66.804 5.65976 67.6984 4.47232 68.738 3.47209C69.216 3.01209 70.0955 2.6377 70.3629 2.09223C70.6962 1.93651 71.8508 1.2852 71.9996 1.05667L71.8613 1.04134ZM82.169 9.56127L82.1504 9.5943C81.7416 10.3478 81.53 11.1665 81.1261 11.9291C80.0173 14.0232 77.7475 16.774 75.767 18.4819C74.7172 19.3871 73.6393 20.2741 72.534 21.1422C72.1818 21.4188 69.9963 22.9607 69.9411 23.1253L69.9864 23.15L72.5821 23.1311C73.3576 22.4713 74.1091 21.7981 74.8749 21.1322C76.0244 20.1327 77.181 19.1234 78.1567 18.0249C79.0894 16.9748 79.8844 15.827 80.5523 14.6726C81.1438 13.6503 81.6414 12.6126 81.9137 11.5161C82.043 10.9951 82.2933 10.1831 82.2163 9.67213L82.169 9.56127Z" fill="#19597C"/>
<path d="M0.241674 56.6774L95.5235 56.6738L95.5071 57.3688L62.2841 57.3681C63.0456 58.2088 63.7429 59.0819 64.4726 59.9377C65.7134 61.3916 66.9631 62.8402 68.0946 64.3432L68.6496 65.157C69.2991 66.1654 69.7132 67.3256 69.1779 68.4207C68.9325 68.9227 68.4333 69.6522 67.7455 69.8792C67.1905 70.0625 66.6095 70.0203 66.0551 69.8605C65.2068 69.6159 64.5222 69.0715 63.9883 68.5413C63.5504 68.1068 63.2023 67.6165 62.8385 67.1467C62.1059 66.2009 61.4178 65.2383 60.6919 64.2903C59.5741 62.8297 58.4459 61.3722 57.3439 59.905C56.7223 59.0773 56.0531 58.2463 55.5324 57.3806L38.4208 57.3737C37.9556 58.0989 37.2879 58.7882 36.7419 59.4853C35.5311 61.0312 34.3374 62.5828 33.1077 64.1203C32.46 64.9301 31.8163 65.7406 31.1914 66.5598C30.5582 67.3898 29.9496 68.2384 29.1996 69.0152C28.7597 69.4712 28.3433 69.8802 27.5451 69.9687C26.8618 70.0443 26.2517 69.951 25.6965 69.6376C24.8057 69.1346 24.2584 68.368 24.1139 67.5531C24.0267 67.0621 24.0943 66.4985 24.309 66.0292C24.9481 64.633 26.4347 63.0309 27.4786 61.7503C28.6577 60.3038 29.8445 58.7287 31.2287 57.3934L0.184839 57.3834C0.173046 57.1674 0.123695 56.8775 0.241674 56.6774Z" fill="#19597C"/>
<path d="M53.5891 66.3674L54.2555 64.6162H54.9929L54.3477 66.2823C54.4753 66.2445 54.61 66.2256 54.7518 66.2256C54.974 66.2256 55.1536 66.2847 55.2907 66.4029C55.4325 66.5163 55.527 66.6605 55.5743 66.8354C55.6215 67.0055 55.6452 67.1615 55.6452 67.3033V68.5227C55.6452 68.8631 55.5412 69.1396 55.3332 69.3523C55.13 69.5602 54.8653 69.6642 54.5391 69.6642C54.2083 69.6642 53.9412 69.5602 53.738 69.3523C53.5347 69.1396 53.4331 68.8631 53.4331 68.5227V67.438C53.4331 66.9984 53.4851 66.6416 53.5891 66.3674ZM54.5391 66.8212C54.2603 66.8212 54.1208 66.9724 54.1208 67.2749V68.4093C54.1208 68.5842 54.1468 68.7284 54.1988 68.8418C54.2508 68.9505 54.3642 69.0049 54.5391 69.0049C54.7093 69.0049 54.8204 68.9481 54.8724 68.8347C54.9291 68.7213 54.9574 68.5795 54.9574 68.4093V67.2749C54.9574 66.9724 54.818 66.8212 54.5391 66.8212Z" fill="#F09F52"/>
<path d="M51.771 65.6017V64.9353C51.9364 64.9353 52.0499 64.914 52.1113 64.8714C52.1728 64.8242 52.2035 64.7391 52.2035 64.6162H52.8345V69.6146H52.1468V65.5663C52.0995 65.5852 52.0381 65.5993 51.9624 65.6088C51.8868 65.6135 51.823 65.6112 51.771 65.6017Z" fill="#F09F52"/>
<path d="M50.1575 69.664C49.8314 69.664 49.5644 69.5577 49.3564 69.345C49.1484 69.1276 49.0444 68.8511 49.0444 68.5155V65.7221C49.0444 65.3817 49.1484 65.1052 49.3564 64.8925C49.5644 64.6751 49.8314 64.5664 50.1575 64.5664C50.4837 64.5664 50.7507 64.6751 50.9587 64.8925C51.1667 65.1052 51.2707 65.3817 51.2707 65.7221V68.5155C51.2707 68.8511 51.1667 69.1276 50.9587 69.345C50.7507 69.5577 50.4837 69.664 50.1575 69.664ZM50.1575 65.2329C50.0347 65.2329 49.933 65.2707 49.8527 65.3463C49.7723 65.4172 49.7322 65.533 49.7322 65.6937V68.5368C49.7322 68.6171 49.7463 68.6951 49.7747 68.7707C49.8031 68.8416 49.8527 68.8983 49.9236 68.9409C49.9945 68.9787 50.0725 68.9976 50.1575 68.9976C50.2426 68.9976 50.3183 68.9787 50.3844 68.9409C50.4553 68.8983 50.505 68.8416 50.5333 68.7707C50.5617 68.6951 50.5759 68.6171 50.5759 68.5368V65.6937C50.5759 65.6133 50.5617 65.5377 50.5333 65.4668C50.505 65.3912 50.4553 65.3345 50.3844 65.2967C50.3183 65.2541 50.2426 65.2329 50.1575 65.2329Z" fill="#F09F52"/>
<path d="M48.5222 68.948V69.6144H46.3882V69.1536C46.3882 69.0118 46.4024 68.8511 46.4307 68.6715C46.4638 68.4918 46.53 68.2862 46.6292 68.0546C46.7332 67.8183 46.9034 67.5229 47.1397 67.1684C47.3808 66.8092 47.5249 66.5918 47.5722 66.5161C47.6242 66.4358 47.6762 66.3389 47.7282 66.2254C47.7849 66.1073 47.8251 66.0033 47.8487 65.9135C47.8723 65.819 47.8842 65.7268 47.8842 65.637C47.8842 65.4999 47.844 65.3959 47.7636 65.325C47.688 65.2541 47.5911 65.2187 47.4729 65.2187C47.3595 65.2187 47.2626 65.2589 47.1823 65.3392C47.1019 65.4196 47.0617 65.5354 47.0617 65.6866H46.3882C46.3882 65.351 46.4898 65.0816 46.693 64.8784C46.8963 64.6704 47.1563 64.5664 47.4729 64.5664C47.7943 64.5664 48.0567 64.6657 48.2599 64.8642C48.4632 65.058 48.5648 65.3132 48.5648 65.6299C48.5648 65.8379 48.5152 66.0671 48.4159 66.3176C48.3214 66.5634 48.1418 66.8824 47.8771 67.2747C47.6124 67.6671 47.4446 67.9247 47.3737 68.0475C47.3075 68.1704 47.2532 68.2815 47.2106 68.3808C47.1681 68.4753 47.135 68.5722 47.1114 68.6715C47.0877 68.766 47.0759 68.8582 47.0759 68.948H48.5222Z" fill="#F09F52"/>
<path d="M45.0328 69.2596C45.0328 69.3683 44.9927 69.4628 44.9123 69.5432C44.8367 69.6188 44.7445 69.6566 44.6358 69.6566C44.5271 69.6566 44.4326 69.6188 44.3522 69.5432C44.2766 69.4628 44.2388 69.3683 44.2388 69.2596C44.2388 69.1509 44.2766 69.0563 44.3522 68.976C44.4326 68.8956 44.5271 68.8555 44.6358 68.8555C44.7445 68.8555 44.8367 68.8956 44.9123 68.976C44.9927 69.0563 45.0328 69.1509 45.0328 69.2596Z" fill="#F09F52"/>
<path d="M44.3805 64.6162V65.2827H43.714V69.6146H43.0192V65.2827H42.3599V64.6162H44.3805Z" fill="#F09F52"/>
<path d="M41.1102 64.5664C41.4222 64.5664 41.6798 64.668 41.883 64.8713C42.0862 65.0745 42.1879 65.3463 42.1879 65.6866H41.5143C41.5143 65.5306 41.4742 65.4148 41.3938 65.3392C41.3134 65.2589 41.2166 65.2187 41.1031 65.2187C40.9944 65.2187 40.9022 65.2518 40.8266 65.3179C40.7557 65.3841 40.7203 65.4739 40.7203 65.5874C40.7203 65.7764 40.7935 65.9749 40.94 66.1829L41.8334 67.4945C41.9468 67.6647 42.0413 67.8372 42.117 68.0121C42.1926 68.1823 42.2304 68.3831 42.2304 68.6147C42.2304 68.9314 42.1264 69.1867 41.9185 69.3804C41.7152 69.5742 41.4482 69.6711 41.1173 69.6711C40.7817 69.6711 40.5076 69.5671 40.2949 69.3592C40.0869 69.1465 39.9829 68.8652 39.9829 68.5155H40.6706C40.6706 68.6809 40.7132 68.8038 40.7982 68.8842C40.8881 68.9598 40.9968 68.9976 41.1244 68.9976C41.2425 68.9976 41.3418 68.9621 41.4222 68.8912C41.5025 68.8156 41.5427 68.7164 41.5427 68.5935C41.5427 68.5226 41.5309 68.4446 41.5072 68.3595C41.4836 68.2697 41.4127 68.1374 41.2945 67.9625L40.4012 66.6437C40.2878 66.4736 40.1956 66.3082 40.1247 66.1475C40.0585 65.982 40.0254 65.793 40.0254 65.5803C40.0254 65.273 40.1271 65.0272 40.3303 64.8429C40.5336 64.6586 40.7935 64.5664 41.1102 64.5664Z" fill="#F09F52"/>
<path d="M39.7704 64.6162V65.2827H38.5935V66.7645H39.4726V67.3742H38.5935V68.9481H39.7704V69.6146H37.9058V64.6162H39.7704Z" fill="#F09F52"/>
</svg>
